# xmcd
#
# Track frame offsets:
#	150
#	19775
#	38749
#	54719
#	73488
#	87913
#	106811
#	126032
#	142381
#	164999
#	182511
#	196780
#	213720
#	233472
#	249926
#
# Disc length: 3562 seconds
#
# Revision: 1
# Processed by: cddbd v1.5.2PL0 Copyright (c) Steve Scherf et al.
# Submitted via: audiograbber 1.83.01
#
DISCID=da0de80f
DTITLE=Various Artist - CB-E9-06
DYEAR=2008
DGENRE=Karaoke
TTITLE0=Luke Bryan - All My Friends Say
TTITLE1=Billy Currington - Tangled Up
TTITLE2=Taylor Swift - Our Song
TTITLE3=Kenny Chesney - I Lost It
TTITLE4=Josh Turner - Me and God
TTITLE5=Little Big Town - A Little More You
TTITLE6=Carrie Underwood - Last Name
TTITLE7=Garth Brooks - More Than A Memory
TTITLE8=Emerson Drive - Moments
TTITLE9=Reba McEntire feat. Kelly Clarkson - Because Of You
TTITLE10=George Strait - It Just Comes Natural
TTITLE11=Trent Tomlinson - Just Might Have Her Radio On
TTITLE12=Faith Hill - Lost
TTITLE13=Bucky Covington - A Different World
TTITLE14=Big and Rich - Lost In This Moment
EXTD=
EXTT0=
EXTT1=
EXTT2=
EXTT3=
EXTT4=
EXTT5=
EXTT6=
EXTT7=
EXTT8=
EXTT9=
EXTT10=
EXTT11=
EXTT12=
EXTT13=
EXTT14=
PLAYORDER=
